<svg aria-roledescription="er" viewBox="0 0 483.0987548828125 335" style="max-width: 483.099px; background-color: white;" xmlns:xlink="http://www.w3.org/1999/xlink" xmlns="http://www.w3.org/2000/svg" width="100%" id="mermaid-0"><style>#mermaid-0{font-family:"trebuchet ms",verdana,arial,sans-serif;font-size:16px;fill:#000000;}#mermaid-0 .error-icon{fill:#552222;}#mermaid-0 .error-text{fill:#552222;stroke:#552222;}#mermaid-0 .edge-thickness-normal{stroke-width:2px;}#mermaid-0 .edge-thickness-thick{stroke-width:3.5px;}#mermaid-0 .edge-pattern-solid{stroke-dasharray:0;}#mermaid-0 .edge-pattern-dashed{stroke-dasharray:3;}#mermaid-0 .edge-pattern-dotted{stroke-dasharray:2;}#mermaid-0 .marker{fill:#000000;stroke:#000000;}#mermaid-0 .marker.cross{stroke:#000000;}#mermaid-0 svg{font-family:"trebuchet ms",verdana,arial,sans-serif;font-size:16px;}#mermaid-0 .entityBox{fill:#cde498;stroke:#13540c;}#mermaid-0 .attributeBoxOdd{fill:#ffffff;stroke:#13540c;}#mermaid-0 .attributeBoxEven{fill:#f2f2f2;stroke:#13540c;}#mermaid-0 .relationshipLabelBox{fill:hsl(78.1578947368, 58.4615384615%, 84.5098039216%);opacity:0.7;background-color:hsl(78.1578947368, 58.4615384615%, 84.5098039216%);}#mermaid-0 .relationshipLabelBox rect{opacity:0.5;}#mermaid-0 .relationshipLine{stroke:#000000;}#mermaid-0 .entityTitleText{text-anchor:middle;font-size:18px;fill:#000000;}#mermaid-0 :root{--mermaid-font-family:"trebuchet ms",verdana,arial,sans-serif;}</style><g/><defs><marker orient="auto" markerHeight="18" markerWidth="18" refY="9" refX="0" id="ONLY_ONE_START"><path d="M9,0 L9,18 M15,0 L15,18" fill="none" stroke="gray"/></marker></defs><defs><marker orient="auto" markerHeight="18" markerWidth="18" refY="9" refX="18" id="ONLY_ONE_END"><path d="M3,0 L3,18 M9,0 L9,18" fill="none" stroke="gray"/></marker></defs><defs><marker orient="auto" markerHeight="18" markerWidth="30" refY="9" refX="0" id="ZERO_OR_ONE_START"><circle r="6" cy="9" cx="21" fill="white" stroke="gray"/><path d="M9,0 L9,18" fill="none" stroke="gray"/></marker></defs><defs><marker orient="auto" markerHeight="18" markerWidth="30" refY="9" refX="30" id="ZERO_OR_ONE_END"><circle r="6" cy="9" cx="9" fill="white" stroke="gray"/><path d="M21,0 L21,18" fill="none" stroke="gray"/></marker></defs><defs><marker orient="auto" markerHeight="36" markerWidth="45" refY="18" refX="18" id="ONE_OR_MORE_START"><path d="M0,18 Q 18,0 36,18 Q 18,36 0,18 M42,9 L42,27" fill="none" stroke="gray"/></marker></defs><defs><marker orient="auto" markerHeight="36" markerWidth="45" refY="18" refX="27" id="ONE_OR_MORE_END"><path d="M3,9 L3,27 M9,18 Q27,0 45,18 Q27,36 9,18" fill="none" stroke="gray"/></marker></defs><defs><marker orient="auto" markerHeight="36" markerWidth="57" refY="18" refX="18" id="ZERO_OR_MORE_START"><circle r="6" cy="18" cx="48" fill="white" stroke="gray"/><path d="M0,18 Q18,0 36,18 Q18,36 0,18" fill="none" stroke="gray"/></marker></defs><defs><marker orient="auto" markerHeight="36" markerWidth="57" refY="18" refX="39" id="ZERO_OR_MORE_END"><circle r="6" cy="18" cx="9" fill="white" stroke="gray"/><path d="M21,18 Q39,0 57,18 Q39,36 21,18" fill="none" stroke="gray"/></marker></defs><path style="stroke: gray; fill: none;" marker-start="url(#ZERO_OR_MORE_START)" marker-end="url(#ONLY_ONE_END)" d="M81.3671875,86L81.3671875,94.33333333333333C81.3671875,102.66666666666667,81.3671875,119.33333333333333,85.00619768922853,136C88.64520787845704,152.66666666666666,95.92322825691411,169.33333333333334,99.56223844614264,177.66666666666666L103.20124863537117,186" class="er relationshipLine"/><path style="stroke: gray; fill: none;" marker-start="url(#ZERO_OR_MORE_START)" marker-end="url(#ONLY_ONE_END)" d="M372.6179146824113,75.5L378.69221187116636,85.58333333333333C384.76650905992136,95.66666666666667,396.91510343743136,115.83333333333333,402.9894006261864,139.5C409.0636978149414,163.16666666666666,409.0636978149414,190.33333333333334,409.0636978149414,203.91666666666666L409.0636978149414,217.5" class="er relationshipLine"/><path style="stroke: gray; fill: none;" marker-start="url(#ZERO_OR_MORE_START)" marker-end="url(#ONLY_ONE_END)" d="M325.9879071798669,75.5L311.1650528582224,85.58333333333333C296.34219853657794,95.66666666666667,266.69648989328897,115.83333333333333,244.18196208183372,134.25C221.66743427037844,152.66666666666666,206.2840872907569,169.33333333333334,198.59241380094613,177.66666666666666L190.90074031113537,186" class="er relationshipLine"/><g transform="translate(41.37641906738281,186 )" id="entity-habits-dc84fefa-3a94-4912-a4de-32b349233a3f"><rect height="129" width="179.98153686523438" y="0" x="0" class="er entityBox"/><text style="dominant-baseline: middle; text-anchor: middle; font-size: 12px;" transform="translate(89.99076843261719,12)" y="0" x="0" id="text-entity-habits-dc84fefa-3a94-4912-a4de-32b349233a3f" class="er entityLabel">habits</text><rect height="21" width="54.113128662109375" y="24" x="0" class="er attributeBoxOdd"/><text style="dominant-baseline: middle; font-size: 10.2px;" transform="translate(5,34.5)" y="0" x="0" id="text-entity-habits-dc84fefa-3a94-4912-a4de-32b349233a3f-attr-1-type" class="er entityLabel">String</text><rect height="21" width="56.620208740234375" y="24" x="54.113128662109375" class="er attributeBoxOdd"/><text style="dominant-baseline: middle; font-size: 10.2px;" transform="translate(59.113128662109375,34.5)" y="0" x="0" id="text-entity-habits-dc84fefa-3a94-4912-a4de-32b349233a3f-attr-1-name" class="er entityLabel">id</text><rect height="21" width="23.79498291015625" y="24" x="110.73333740234375" class="er attributeBoxOdd"/><text style="dominant-baseline: middle; font-size: 10.2px;" transform="translate(115.73333740234375,34.5)" y="0" x="0" id="text-entity-habits-dc84fefa-3a94-4912-a4de-32b349233a3f-attr-1-key" class="er entityLabel">PK</text><rect height="21" width="45.453216552734375" y="24" x="134.5283203125" class="er attributeBoxOdd"/><text style="dominant-baseline: middle; font-size: 10.2px;" transform="translate(139.5283203125,34.5)" y="0" x="0" id="text-entity-habits-dc84fefa-3a94-4912-a4de-32b349233a3f-attr-1-comment" class="er entityLabel"/><rect height="21" width="54.113128662109375" y="45" x="0" class="er attributeBoxEven"/><text style="dominant-baseline: middle; font-size: 10.2px;" transform="translate(5,55.5)" y="0" x="0" id="text-entity-habits-dc84fefa-3a94-4912-a4de-32b349233a3f-attr-2-type" class="er entityLabel">String</text><rect height="21" width="56.620208740234375" y="45" x="54.113128662109375" class="er attributeBoxEven"/><text style="dominant-baseline: middle; font-size: 10.2px;" transform="translate(59.113128662109375,55.5)" y="0" x="0" id="text-entity-habits-dc84fefa-3a94-4912-a4de-32b349233a3f-attr-2-name" class="er entityLabel">title</text><rect height="21" width="23.79498291015625" y="45" x="110.73333740234375" class="er attributeBoxEven"/><text style="dominant-baseline: middle; font-size: 10.2px;" transform="translate(115.73333740234375,55.5)" y="0" x="0" id="text-entity-habits-dc84fefa-3a94-4912-a4de-32b349233a3f-attr-2-key" class="er entityLabel"/><rect height="21" width="45.453216552734375" y="45" x="134.5283203125" class="er attributeBoxEven"/><text style="dominant-baseline: middle; font-size: 10.2px;" transform="translate(139.5283203125,55.5)" y="0" x="0" id="text-entity-habits-dc84fefa-3a94-4912-a4de-32b349233a3f-attr-2-comment" class="er entityLabel"/><rect height="21" width="54.113128662109375" y="66" x="0" class="er attributeBoxOdd"/><text style="dominant-baseline: middle; font-size: 10.2px;" transform="translate(5,76.5)" y="0" x="0" id="text-entity-habits-dc84fefa-3a94-4912-a4de-32b349233a3f-attr-3-type" class="er entityLabel">DateTime</text><rect height="21" width="56.620208740234375" y="66" x="54.113128662109375" class="er attributeBoxOdd"/><text style="dominant-baseline: middle; font-size: 10.2px;" transform="translate(59.113128662109375,76.5)" y="0" x="0" id="text-entity-habits-dc84fefa-3a94-4912-a4de-32b349233a3f-attr-3-name" class="er entityLabel">createdAt</text><rect height="21" width="23.79498291015625" y="66" x="110.73333740234375" class="er attributeBoxOdd"/><text style="dominant-baseline: middle; font-size: 10.2px;" transform="translate(115.73333740234375,76.5)" y="0" x="0" id="text-entity-habits-dc84fefa-3a94-4912-a4de-32b349233a3f-attr-3-key" class="er entityLabel"/><rect height="21" width="45.453216552734375" y="66" x="134.5283203125" class="er attributeBoxOdd"/><text style="dominant-baseline: middle; font-size: 10.2px;" transform="translate(139.5283203125,76.5)" y="0" x="0" id="text-entity-habits-dc84fefa-3a94-4912-a4de-32b349233a3f-attr-3-comment" class="er entityLabel"/><rect height="21" width="54.113128662109375" y="87" x="0" class="er attributeBoxEven"/><text style="dominant-baseline: middle; font-size: 10.2px;" transform="translate(5,97.5)" y="0" x="0" id="text-entity-habits-dc84fefa-3a94-4912-a4de-32b349233a3f-attr-4-type" class="er entityLabel">DateTime</text><rect height="21" width="56.620208740234375" y="87" x="54.113128662109375" class="er attributeBoxEven"/><text style="dominant-baseline: middle; font-size: 10.2px;" transform="translate(59.113128662109375,97.5)" y="0" x="0" id="text-entity-habits-dc84fefa-3a94-4912-a4de-32b349233a3f-attr-4-name" class="er entityLabel">updatedAt</text><rect height="21" width="23.79498291015625" y="87" x="110.73333740234375" class="er attributeBoxEven"/><text style="dominant-baseline: middle; font-size: 10.2px;" transform="translate(115.73333740234375,97.5)" y="0" x="0" id="text-entity-habits-dc84fefa-3a94-4912-a4de-32b349233a3f-attr-4-key" class="er entityLabel"/><rect height="21" width="45.453216552734375" y="87" x="134.5283203125" class="er attributeBoxEven"/><text style="dominant-baseline: middle; font-size: 10.2px;" transform="translate(139.5283203125,97.5)" y="0" x="0" id="text-entity-habits-dc84fefa-3a94-4912-a4de-32b349233a3f-attr-4-comment" class="er entityLabel"/><rect height="21" width="54.113128662109375" y="108" x="0" class="er attributeBoxOdd"/><text style="dominant-baseline: middle; font-size: 10.2px;" transform="translate(5,118.5)" y="0" x="0" id="text-entity-habits-dc84fefa-3a94-4912-a4de-32b349233a3f-attr-5-type" class="er entityLabel">DateTime</text><rect height="21" width="56.620208740234375" y="108" x="54.113128662109375" class="er attributeBoxOdd"/><text style="dominant-baseline: middle; font-size: 10.2px;" transform="translate(59.113128662109375,118.5)" y="0" x="0" id="text-entity-habits-dc84fefa-3a94-4912-a4de-32b349233a3f-attr-5-name" class="er entityLabel">deletedAt</text><rect height="21" width="23.79498291015625" y="108" x="110.73333740234375" class="er attributeBoxOdd"/><text style="dominant-baseline: middle; font-size: 10.2px;" transform="translate(115.73333740234375,118.5)" y="0" x="0" id="text-entity-habits-dc84fefa-3a94-4912-a4de-32b349233a3f-attr-5-key" class="er entityLabel"/><rect height="21" width="45.453216552734375" y="108" x="134.5283203125" class="er attributeBoxOdd"/><text style="dominant-baseline: middle; font-size: 10.2px;" transform="translate(139.5283203125,118.5)" y="0" x="0" id="text-entity-habits-dc84fefa-3a94-4912-a4de-32b349233a3f-attr-5-comment" class="er entityLabel">nullable</text></g><g transform="translate(355.0286331176758,217.5 )" id="entity-days-4e1b9262-69db-43c9-9ecb-d7ca78a831b4"><rect height="66" width="108.07012939453125" y="0" x="0" class="er entityBox"/><text style="dominant-baseline: middle; text-anchor: middle; font-size: 12px;" transform="translate(54.035064697265625,12)" y="0" x="0" id="text-entity-days-4e1b9262-69db-43c9-9ecb-d7ca78a831b4" class="er entityLabel">days</text><rect height="21" width="54.113128662109375" y="24" x="0" class="er attributeBoxOdd"/><text style="dominant-baseline: middle; font-size: 10.2px;" transform="translate(5,34.5)" y="0" x="0" id="text-entity-days-4e1b9262-69db-43c9-9ecb-d7ca78a831b4-attr-1-type" class="er entityLabel">String</text><rect height="21" width="30.162017822265625" y="24" x="54.113128662109375" class="er attributeBoxOdd"/><text style="dominant-baseline: middle; font-size: 10.2px;" transform="translate(59.113128662109375,34.5)" y="0" x="0" id="text-entity-days-4e1b9262-69db-43c9-9ecb-d7ca78a831b4-attr-1-name" class="er entityLabel">id</text><rect height="21" width="23.79498291015625" y="24" x="84.275146484375" class="er attributeBoxOdd"/><text style="dominant-baseline: middle; font-size: 10.2px;" transform="translate(89.275146484375,34.5)" y="0" x="0" id="text-entity-days-4e1b9262-69db-43c9-9ecb-d7ca78a831b4-attr-1-key" class="er entityLabel">PK</text><rect height="21" width="54.113128662109375" y="45" x="0" class="er attributeBoxEven"/><text style="dominant-baseline: middle; font-size: 10.2px;" transform="translate(5,55.5)" y="0" x="0" id="text-entity-days-4e1b9262-69db-43c9-9ecb-d7ca78a831b4-attr-2-type" class="er entityLabel">DateTime</text><rect height="21" width="30.162017822265625" y="45" x="54.113128662109375" class="er attributeBoxEven"/><text style="dominant-baseline: middle; font-size: 10.2px;" transform="translate(59.113128662109375,55.5)" y="0" x="0" id="text-entity-days-4e1b9262-69db-43c9-9ecb-d7ca78a831b4-attr-2-name" class="er entityLabel">date</text><rect height="21" width="23.79498291015625" y="45" x="84.275146484375" class="er attributeBoxEven"/><text style="dominant-baseline: middle; font-size: 10.2px;" transform="translate(89.275146484375,55.5)" y="0" x="0" id="text-entity-days-4e1b9262-69db-43c9-9ecb-d7ca78a831b4-attr-2-key" class="er entityLabel"/></g><g transform="translate(20,20 )" id="entity-habitweekdays-7f3e1135-02f9-40da-ae9c-de8bf4608509"><rect height="66" width="122.734375" y="0" x="0" class="er entityBox"/><text style="dominant-baseline: middle; text-anchor: middle; font-size: 12px;" transform="translate(61.3671875,12)" y="0" x="0" id="text-entity-habitweekdays-7f3e1135-02f9-40da-ae9c-de8bf4608509" class="er entityLabel">habit_week_days</text><rect height="21" width="38.351216634114586" y="24" x="0" class="er attributeBoxOdd"/><text style="dominant-baseline: middle; font-size: 10.2px;" transform="translate(5,34.5)" y="0" x="0" id="text-entity-habitweekdays-7f3e1135-02f9-40da-ae9c-de8bf4608509-attr-1-type" class="er entityLabel">String</text><rect height="21" width="59.18401082356771" y="24" x="38.351216634114586" class="er attributeBoxOdd"/><text style="dominant-baseline: middle; font-size: 10.2px;" transform="translate(43.351216634114586,34.5)" y="0" x="0" id="text-entity-habitweekdays-7f3e1135-02f9-40da-ae9c-de8bf4608509-attr-1-name" class="er entityLabel">id</text><rect height="21" width="25.199147542317707" y="24" x="97.5352274576823" class="er attributeBoxOdd"/><text style="dominant-baseline: middle; font-size: 10.2px;" transform="translate(102.5352274576823,34.5)" y="0" x="0" id="text-entity-habitweekdays-7f3e1135-02f9-40da-ae9c-de8bf4608509-attr-1-key" class="er entityLabel">PK</text><rect height="21" width="38.351216634114586" y="45" x="0" class="er attributeBoxEven"/><text style="dominant-baseline: middle; font-size: 10.2px;" transform="translate(5,55.5)" y="0" x="0" id="text-entity-habitweekdays-7f3e1135-02f9-40da-ae9c-de8bf4608509-attr-2-type" class="er entityLabel">Int</text><rect height="21" width="59.18401082356771" y="45" x="38.351216634114586" class="er attributeBoxEven"/><text style="dominant-baseline: middle; font-size: 10.2px;" transform="translate(43.351216634114586,55.5)" y="0" x="0" id="text-entity-habitweekdays-7f3e1135-02f9-40da-ae9c-de8bf4608509-attr-2-name" class="er entityLabel">week_day</text><rect height="21" width="25.199147542317707" y="45" x="97.5352274576823" class="er attributeBoxEven"/><text style="dominant-baseline: middle; font-size: 10.2px;" transform="translate(102.5352274576823,55.5)" y="0" x="0" id="text-entity-habitweekdays-7f3e1135-02f9-40da-ae9c-de8bf4608509-attr-2-key" class="er entityLabel"/></g><g transform="translate(309.0636978149414,30.5 )" id="entity-dayhabits-c58e4023-3d4f-4767-bbee-ce2b0c94d44b"><rect height="45" width="100" y="0" x="0" class="er entityBox"/><text style="dominant-baseline: middle; text-anchor: middle; font-size: 12px;" transform="translate(50,12)" y="0" x="0" id="text-entity-dayhabits-c58e4023-3d4f-4767-bbee-ce2b0c94d44b" class="er entityLabel">day_habits</text><rect height="21" width="43.94526163736979" y="24" x="0" class="er attributeBoxOdd"/><text style="dominant-baseline: middle; font-size: 10.2px;" transform="translate(5,34.5)" y="0" x="0" id="text-entity-dayhabits-c58e4023-3d4f-4767-bbee-ce2b0c94d44b-attr-1-type" class="er entityLabel">String</text><rect height="21" width="25.261545817057293" y="24" x="43.94526163736979" class="er attributeBoxOdd"/><text style="dominant-baseline: middle; font-size: 10.2px;" transform="translate(48.94526163736979,34.5)" y="0" x="0" id="text-entity-dayhabits-c58e4023-3d4f-4767-bbee-ce2b0c94d44b-attr-1-name" class="er entityLabel">id</text><rect height="21" width="30.793192545572918" y="24" x="69.20680745442708" class="er attributeBoxOdd"/><text style="dominant-baseline: middle; font-size: 10.2px;" transform="translate(74.20680745442708,34.5)" y="0" x="0" id="text-entity-dayhabits-c58e4023-3d4f-4767-bbee-ce2b0c94d44b-attr-1-key" class="er entityLabel">PK</text></g><rect height="14" width="26.6875" y="130.49215698242188" x="71.99791717529297" class="er relationshipLabelBox"/><text style="text-anchor: middle; dominant-baseline: middle; font-size: 12px;" y="137.49215698242188" x="85.34166717529297" id="rel1" class="er relationshipLabel">habit</text><rect height="14" width="19.359375" y="136.06008911132812" x="394.1725769042969" class="er relationshipLabelBox"/><text style="text-anchor: middle; dominant-baseline: middle; font-size: 12px;" y="143.06008911132812" x="403.8522644042969" id="rel2" class="er relationshipLabel">day</text><rect height="13.999992370605469" width="26.6875" y="119.04215621948242" x="241.17361450195312" class="er relationshipLabelBox"/><text style="text-anchor: middle; dominant-baseline: middle; font-size: 12px;" y="126.04215240478516" x="254.51736450195312" id="rel3" class="er relationshipLabel">habit</text></svg>